<?xml version="1.0" encoding="UTF-8" standalone="no"?>
<!DOCTYPE svg PUBLIC "-//W3C//DTD SVG 1.1//EN" "http://www.w3.org/Graphics/SVG/1.1/DTD/svg11.dtd">
<svg width="100%" height="100%" viewBox="0 0 480 250" version="1.1" xmlns="http://www.w3.org/2000/svg" xmlns:xlink="http://www.w3.org/1999/xlink" xml:space="preserve" xmlns:serif="http://www.serif.com/" style="fill-rule:evenodd;clip-rule:evenodd;stroke-linejoin:round;stroke-miterlimit:2;">
    <g transform="matrix(1,0,0,1,1.51,13.1111)">
        <path d="M68.44,81.95L102.61,7.84L129.12,107.5L111.49,107.5L111.49,106.55L113.19,104.85C113.42,104.62 113.61,104.31 113.77,103.9C113.93,103.49 114.01,103.06 114.01,102.61C114.01,102.38 113.96,102.04 113.87,101.59C113.78,101.14 113.64,100.62 113.46,100.03L98.75,43.35L67.77,110.67L35.42,44.05L21.93,99.98C21.79,100.48 21.69,100.93 21.63,101.34C21.56,101.75 21.53,102.13 21.53,102.49C21.53,102.99 21.6,103.44 21.73,103.85C21.87,104.26 22.07,104.6 22.34,104.87L23.9,106.57L23.9,107.52L6.4,107.52L33.32,7.84L68.44,81.94L68.44,81.95Z" style="fill:rgb(58,86,253);fill-rule:nonzero;"/>
    </g>
    <g transform="matrix(1,0,0,1,1.51,13.1111)">
        <path d="M187.63,24.18C181.89,24.18 177.12,24.7 173.32,25.74C169.52,26.78 166.31,28.38 163.69,30.55C159.53,34.08 156.39,38.27 154.27,43.13C152.15,47.99 151.08,53.38 151.08,59.3C151.08,65.58 152.12,71.11 154.2,75.88C156.28,80.65 159.4,84.66 163.56,87.91C166.5,90.22 169.76,91.86 173.36,92.83C176.95,93.8 181.89,94.29 188.17,94.29L229.93,94.29C230.52,94.29 231.04,94.2 231.49,94.02C231.94,93.84 232.44,93.52 232.98,93.07L235.62,90.83L236.77,90.83L227.69,107.51L188.16,107.51C179.03,107.51 171.94,106.73 166.91,105.17C161.87,103.61 157.14,101 152.71,97.34C147.29,92.91 143.18,87.59 140.4,81.37C137.62,75.16 136.23,68.23 136.23,60.59C136.23,54.67 137.03,49.11 138.64,43.91C140.24,38.71 142.63,33.94 145.79,29.6C148,26.57 150.54,23.86 153.38,21.46C156.23,19.06 159.35,17.01 162.74,15.29C165.72,13.8 168.93,12.74 172.37,12.1C175.8,11.47 180.89,11.15 187.63,11.15L235.5,11.15L226.48,27.63L225.8,27.63L225.94,26.41L225.94,26.14C225.94,25.55 225.71,25.08 225.26,24.72C224.81,24.36 224.24,24.18 223.57,24.18L187.63,24.18ZM154.54,61.27L160.37,48.05L226.74,48.05L217.86,64.73L217.05,64.73L217.19,63.37L217.19,63.1C217.19,62.56 216.97,62.12 216.55,61.78C216.12,61.44 215.54,61.27 214.82,61.27L154.54,61.27Z" style="fill:rgb(58,86,253);fill-rule:nonzero;"/>
    </g>
    <g transform="matrix(1,0,0,1,1.51,13.1111)">
        <path d="M278.21,44.45L307.97,52.11C319.54,55.09 328.35,59.88 334.41,66.48C340.47,73.08 343.49,81.19 343.49,90.82L343.49,107.5L241.05,107.5L246.88,94.28L328.92,94.28C328.96,93.96 329,93.6 329.02,93.19C329.04,92.78 329.05,92.17 329.05,91.36C329.05,84.72 327.03,79.24 322.98,74.92C318.93,70.61 312.78,67.34 304.51,65.12L264.64,55.02C257.63,53.21 252.41,50.44 248.98,46.71C245.54,42.98 243.83,38.2 243.83,32.37C243.83,25.73 246.14,20.53 250.75,16.78C255.36,13.03 261.8,11.15 270.07,11.15L335.9,11.15L326.82,27.63L326.01,27.63L326.15,26.41L326.15,26.14C326.15,25.55 325.94,25.08 325.51,24.72C325.08,24.36 324.5,24.18 323.78,24.18L270.08,24.18C266.1,24.18 263.16,24.82 261.27,26.11C259.37,27.4 258.42,29.4 258.42,32.11C258.42,36.99 264.75,41.04 277.4,44.25L278.21,44.45Z" style="fill:rgb(58,86,253);fill-rule:nonzero;"/>
    </g>
    <g transform="matrix(1,0,0,1,1.51,13.1111)">
        <path d="M369.87,107.51L349.33,107.51L410.14,7.84L470.55,107.5L449.74,107.5L449.74,106.55C450.64,106.55 451.36,106.37 451.88,106.01C452.4,105.65 452.66,105.17 452.66,104.59C452.66,104.18 452.6,103.81 452.49,103.47C452.38,103.13 452.25,102.87 452.12,102.69L431.64,69.06L402.08,69.06C400.68,69.06 399.75,69.1 399.3,69.16C398.85,69.23 398.53,69.37 398.35,69.6L396.38,71.23L395.7,70.69L404.31,55.84L423.5,55.84L410.14,33.81L367.5,102.63C367.32,102.9 367.18,103.21 367.09,103.54C367,103.88 366.95,104.23 366.95,104.59C366.95,105.18 367.21,105.65 367.73,106.01C368.25,106.37 368.96,106.55 369.87,106.55L369.87,107.51Z" style="fill:rgb(58,86,253);fill-rule:nonzero;"/>
    </g>
    <g transform="matrix(0.122014,7.99181e-05,-7.99181e-05,0.122014,411.45,30.7519)">
        <g transform="matrix(1,0,0,1,-400,-400)">
            <clipPath id="_clip1">
                <rect x="0" y="0" width="800" height="800"/>
            </clipPath>
            <g clip-path="url(#_clip1)">
                <g transform="matrix(0.828392,0,0,0.828392,4.70887e-14,4.70887e-14)">
                    <g>
                        <g transform="matrix(1,0,0,1,-0.037,-31.043)">
                            <path d="M766.601,628.012L766.601,469.912L513.5,520.812C503.5,522.812 493.2,523.812 482.9,523.812C472.6,523.812 462.4,522.812 452.3,520.812L199.199,469.912L199.199,628.012C199.199,668.912 326.199,702.113 482.899,702.113C639.599,702.113 766.601,669.012 766.601,628.012Z" style="fill:rgb(140,140,140);fill-rule:nonzero;"/>
                        </g>
                        <path d="M945.7,354.312L507.6,266.112C499.499,264.512 491.2,263.612 482.9,263.612C474.6,263.612 466.4,264.412 458.2,266.112L20.1,354.312C-6.701,359.712 -6.701,397.912 20.1,403.312L199.2,439.312L458.2,491.412C466.301,493.012 474.6,493.912 482.9,493.912C491.2,493.912 499.4,493.112 507.6,491.412L766.6,439.312L847.2,423.112L847.2,610.511C837.7,618.812 831.7,631.112 831.7,644.711C831.7,669.812 852.1,690.211 877.2,690.211C902.301,690.211 922.7,669.812 922.7,644.711C922.7,631.011 916.7,618.812 907.2,610.511L907.2,411.011L945.7,403.312C972.4,397.913 972.4,359.712 945.7,354.312Z" style="fill:rgb(160,160,160);fill-rule:nonzero;"/>
                    </g>
                </g>
            </g>
        </g>
    </g>
    <g transform="matrix(1.03356,0,0,1.03356,-77.9676,34.5653)">
        <path d="M83.089,176.939L93.186,176.939L101.243,154.488L134.651,154.488L142.493,176.939L152.805,176.939L123.587,96.91L112.63,96.91L83.089,176.939ZM104.305,145.894L110.481,128.707C112.522,123.067 114.671,116.622 118.108,105.987C121.546,116.622 123.694,123.067 125.681,128.707L131.697,145.894L104.305,145.894Z" style="fill:rgb(229,229,229);fill-rule:nonzero;"/>
        <path d="M181.917,178.228C194.7,178.228 204.261,169.635 205.818,158.463L196.419,158.463C194.646,165.391 190.403,169.957 181.917,169.957C171.175,169.957 164.837,161.578 164.837,148.687C164.837,135.689 171.228,127.203 181.917,127.203C190.296,127.203 195.237,132.037 196.58,138.697L205.818,138.697C204.261,127.257 194.807,118.931 181.917,118.931C166.18,118.931 155.599,131.285 155.599,148.687C155.599,165.982 166.18,178.228 181.917,178.228Z" style="fill:rgb(229,229,229);fill-rule:nonzero;"/>
        <path d="M233.855,177.799C244.168,177.799 248.626,172.965 250.721,168.883L250.935,168.883L250.935,176.939L259.959,176.939L259.959,137.838C259.959,126.612 251.58,119.146 238.367,119.146C224.939,119.146 215.755,126.827 215.271,137.193L224.563,137.193C224.993,131.554 230.472,127.203 238.367,127.203C246.316,127.203 250.935,131.661 250.935,137.838L250.935,138.375C250.935,142.725 247.444,142.296 236.648,143.746C225.262,145.25 214.09,147.613 214.09,160.611C214.09,171.944 222.576,177.799 233.855,177.799ZM235.144,169.635C227.893,169.635 223.435,166.466 223.435,161.148C223.435,154.757 229.666,152.501 236.219,151.588C242.718,150.675 249.539,149.654 250.935,148.365L250.935,155.455C250.935,162.867 246.316,169.635 235.144,169.635Z" style="fill:rgb(229,229,229);fill-rule:nonzero;"/>
        <path d="M295.193,178.013C302.552,178.013 309.051,174.898 313.133,168.345L313.24,168.345L313.24,176.939L322.156,176.939L322.156,96.91L313.025,96.91L313.025,128.599L312.918,128.599C309.265,122.262 302.552,119.146 295.193,119.146C280.423,119.146 270.594,131.07 270.594,148.58C270.594,166.036 280.423,178.013 295.193,178.013ZM296.59,169.796C286.761,169.796 279.832,162.491 279.832,148.58C279.832,134.669 286.761,127.31 296.59,127.31C307.117,127.31 313.777,135.743 313.777,148.58C313.777,161.417 307.117,169.796 296.59,169.796Z" style="fill:rgb(229,229,229);fill-rule:nonzero;"/>
        <path d="M359.109,178.228C371.463,178.228 381.131,170.816 383.279,159.967L374.148,159.967C372.43,165.875 367.166,169.957 359.109,169.957C348.367,169.957 342.244,162.33 341.814,151.212L384.246,151.212L384.246,148.687C384.246,131.07 374.256,118.931 358.465,118.931C343.426,118.931 332.791,131.446 332.791,148.687C332.791,165.767 342.459,178.228 359.109,178.228ZM341.922,143.37C342.889,133.38 349.173,127.096 358.465,127.096C367.81,127.096 374.148,133.38 375.115,143.37L341.922,143.37Z" style="fill:rgb(229,229,229);fill-rule:nonzero;"/>
        <path d="M394.666,176.939L403.797,176.939L403.797,142.349C403.797,132.574 410.349,127.525 417.493,127.525C424.368,127.525 429.471,132.037 429.471,138.804L429.471,176.939L438.601,176.939L438.601,140.846C438.601,133.165 443.65,127.525 451.975,127.525C458.474,127.525 464.275,130.963 464.275,139.771L464.275,176.939L473.406,176.939L473.406,139.771C473.406,125.806 464.92,119.146 454.553,119.146C446.121,119.146 439.783,123.551 436.668,129.351C434.304,123.658 428.181,119.146 420.393,119.146C413.465,119.146 407.181,122.745 403.582,129.405L403.582,120.221L394.666,120.221L394.666,176.939Z" style="fill:rgb(229,229,229);fill-rule:nonzero;"/>
        <path d="M484.685,199.39L490.271,199.39C497.415,199.39 503.055,195.093 506.009,187.467L532.166,120.221L522.444,120.221L510.413,152.877C508.855,157.12 507.298,161.363 505.794,165.606C504.344,161.363 502.84,157.12 501.228,152.877L488.982,120.221L479.1,120.221L501.067,176.456L497.952,184.512C496.126,189.239 493.763,191.334 490.271,191.334L484.685,191.334L484.685,199.39Z" style="fill:rgb(229,229,229);fill-rule:nonzero;"/>
    </g>
</svg>